<svg width="40" height="40" viewBox="0 0 40 40" fill="none" xmlns="http://www.w3.org/2000/svg">
<path fill-rule="evenodd" clip-rule="evenodd" d="M2.11435 2.11441C3.15577 1.07303 4.84419 1.07303 5.88561 2.11441L20 16.2288L34.1144 2.11441C35.1557 1.07303 36.8442 1.07303 37.8856 2.11441C38.9269 3.15583 38.9269 4.84425 37.8856 5.88567L23.7712 20L37.8856 34.1144C38.9269 35.1558 38.9269 36.8443 37.8856 37.8856C36.8442 38.927 35.1557 38.927 34.1144 37.8856L20 23.7712L5.88561 37.8856C4.84419 38.927 3.15577 38.927 2.11435 37.8856C1.07297 36.8443 1.07297 35.1558 2.11435 34.1144L16.2288 20L2.11435 5.88567C1.07297 4.84425 1.07297 3.15583 2.11435 2.11441Z" fill="white" stroke="white" stroke-width="2.66667"/>
</svg>
